<svg xmlns="http://www.w3.org/2000/svg" xmlns:xlink="http://www.w3.org/1999/xlink" width="500" zoomAndPan="magnify" viewBox="0 0 375 374.999991" height="500" preserveAspectRatio="xMidYMid meet" version="1.0"><defs><g/><clipPath id="cd8fd0f5df"><path d="M 45 48.105469 L 355.394531 48.105469 L 355.394531 299.355469 L 45 299.355469 Z M 45 48.105469 " clip-rule="nonzero"/></clipPath></defs><rect x="-37.5" width="450" fill="#ffffff" y="-37.499999" height="449.999989" fill-opacity="1"/><rect x="-37.5" width="450" fill="#2509ad" y="-37.499999" height="449.999989" fill-opacity="1"/><g clip-path="url(#cd8fd0f5df)"><path fill="#f3ff65" d="M 146.632812 299.203125 C 109.785156 299.203125 75.183594 294.859375 45.121094 287.222656 C 65.8125 290.367188 87.9375 292.058594 110.941406 292.058594 C 226.234375 292.058594 319.703125 249.496094 319.703125 196.984375 C 319.703125 161.269531 276.433594 130.15625 212.453125 113.894531 C 295.5 126.457031 355.394531 162.105469 355.394531 204.152344 C 355.394531 256.644531 261.925781 299.203125 146.632812 299.203125 Z M 150.503906 98.125 L 150.503906 97.355469 C 196.535156 97.355469 199.871094 89.886719 199.871094 47.96875 L 200.640625 47.96875 C 200.640625 89.886719 204 97.355469 250.027344 97.355469 L 250.027344 98.125 C 204 98.125 200.640625 105.570312 200.640625 147.492188 L 199.871094 147.492188 C 199.871094 105.570312 196.535156 98.125 150.503906 98.125 " fill-opacity="1" fill-rule="evenodd"/></g><g fill="#ffffff" fill-opacity="1"><g transform="translate(56.895182, 213.475371)"><g><path d="M 2.921875 -7.859375 C 2.921875 -8.390625 3.007812 -8.9375 3.1875 -9.5 C 3.363281 -10.070312 3.703125 -10.6875 4.203125 -11.34375 C 4.710938 -12 5.34375 -12.582031 6.09375 -13.09375 C 6.851562 -13.601562 7.878906 -14.03125 9.171875 -14.375 C 10.472656 -14.71875 11.941406 -14.890625 13.578125 -14.890625 L 19.96875 -14.890625 L 19.96875 -15.21875 C 19.96875 -15.675781 19.898438 -16.085938 19.765625 -16.453125 C 19.628906 -16.828125 19.367188 -17.210938 18.984375 -17.609375 C 18.609375 -18.003906 18.003906 -18.304688 17.171875 -18.515625 C 16.347656 -18.734375 15.320312 -18.84375 14.09375 -18.84375 L 13.578125 -18.84375 C 10.648438 -18.84375 8.8125 -18.238281 8.0625 -17.03125 L 4.015625 -19.453125 C 5.671875 -22.191406 8.859375 -23.5625 13.578125 -23.5625 L 14.09375 -23.5625 C 15.75 -23.5625 17.222656 -23.375 18.515625 -23 C 19.816406 -22.632812 20.84375 -22.164062 21.59375 -21.59375 C 22.351562 -21.019531 22.972656 -20.347656 23.453125 -19.578125 C 23.929688 -18.804688 24.253906 -18.066406 24.421875 -17.359375 C 24.597656 -16.660156 24.6875 -15.945312 24.6875 -15.21875 L 24.6875 0 L 19.96875 0 L 19.96875 -1.078125 C 18 0.015625 16.039062 0.5625 14.09375 0.5625 L 13.578125 0.5625 C 11.878906 0.5625 10.328125 0.332031 8.921875 -0.125 C 7.515625 -0.59375 6.390625 -1.191406 5.546875 -1.921875 C 4.710938 -2.648438 4.066406 -3.425781 3.609375 -4.25 C 3.148438 -5.070312 2.921875 -5.875 2.921875 -6.65625 Z M 13.578125 -10.171875 C 12.617188 -10.171875 11.753906 -10.085938 10.984375 -9.921875 C 10.222656 -9.765625 9.644531 -9.582031 9.25 -9.375 C 8.863281 -9.164062 8.535156 -8.929688 8.265625 -8.671875 C 7.992188 -8.421875 7.820312 -8.226562 7.75 -8.09375 C 7.6875 -7.957031 7.648438 -7.859375 7.640625 -7.796875 L 7.640625 -6.65625 C 7.640625 -6.28125 7.722656 -5.945312 7.890625 -5.65625 C 8.066406 -5.375 8.363281 -5.113281 8.78125 -4.875 C 9.207031 -4.644531 9.816406 -4.46875 10.609375 -4.34375 C 11.410156 -4.21875 12.398438 -4.15625 13.578125 -4.15625 L 14.09375 -4.15625 C 14.820312 -4.15625 15.515625 -4.25 16.171875 -4.4375 C 16.835938 -4.625 17.394531 -4.851562 17.84375 -5.125 C 18.289062 -5.40625 18.675781 -5.695312 19 -6 C 19.332031 -6.3125 19.578125 -6.582031 19.734375 -6.8125 C 19.890625 -7.050781 19.96875 -7.222656 19.96875 -7.328125 L 19.96875 -10.171875 Z M 13.578125 -10.171875 "/></g></g></g><g fill="#ffffff" fill-opacity="1"><g transform="translate(92.795147, 213.475371)"><g><path d="M 16.25 -18.84375 L 15.734375 -18.84375 C 14.742188 -18.84375 13.742188 -18.578125 12.734375 -18.046875 C 11.722656 -17.515625 10.851562 -16.847656 10.125 -16.046875 C 9.394531 -15.253906 8.796875 -14.363281 8.328125 -13.375 C 7.867188 -12.394531 7.640625 -11.476562 7.640625 -10.625 L 7.640625 0 L 2.921875 0 L 2.921875 -23.015625 L 7.640625 -23.015625 L 7.640625 -20.203125 C 10.140625 -22.441406 12.835938 -23.5625 15.734375 -23.5625 L 16.25 -23.5625 C 20.0625 -23.5625 22.800781 -22.476562 24.46875 -20.3125 L 20.734375 -17.4375 C 20.003906 -18.375 18.507812 -18.84375 16.25 -18.84375 Z M 16.25 -18.84375 "/></g></g></g><g fill="#ffffff" fill-opacity="1"><g transform="translate(128.695112, 213.475371)"><g><path d="M 19.734375 -16.8125 C 18.992188 -18.15625 17.113281 -18.828125 14.09375 -18.828125 L 13.578125 -18.828125 C 12.484375 -18.828125 11.539062 -18.679688 10.75 -18.390625 C 9.96875 -18.109375 9.351562 -17.707031 8.90625 -17.1875 C 8.46875 -16.664062 8.144531 -16.085938 7.9375 -15.453125 C 7.738281 -14.816406 7.640625 -14.097656 7.640625 -13.296875 L 7.640625 -9.734375 C 7.640625 -8.066406 8.203125 -6.71875 9.328125 -5.6875 C 10.460938 -4.664062 11.878906 -4.15625 13.578125 -4.15625 L 14.09375 -4.15625 C 15.4375 -4.15625 16.617188 -4.335938 17.640625 -4.703125 C 18.660156 -5.066406 19.359375 -5.632812 19.734375 -6.40625 L 24 -4.34375 C 23.226562 -2.769531 21.984375 -1.554688 20.265625 -0.703125 C 18.554688 0.140625 16.5 0.5625 14.09375 0.5625 L 13.578125 0.5625 C 10.585938 0.5625 8.0625 -0.40625 6 -2.34375 C 3.945312 -4.28125 2.921875 -6.742188 2.921875 -9.734375 L 2.921875 -13.296875 C 2.921875 -16.273438 3.84375 -18.726562 5.6875 -20.65625 C 7.539062 -22.582031 10.171875 -23.546875 13.578125 -23.546875 L 14.09375 -23.546875 C 16.84375 -23.546875 18.976562 -23.132812 20.5 -22.3125 C 22.019531 -21.5 23.203125 -20.289062 24.046875 -18.6875 Z M 19.734375 -16.8125 "/></g></g></g><g fill="#ffffff" fill-opacity="1"><g transform="translate(164.595077, 213.475371)"><g><path d="M 13.578125 -18.84375 C 12.773438 -18.84375 12.023438 -18.679688 11.328125 -18.359375 C 10.640625 -18.046875 10.078125 -17.65625 9.640625 -17.1875 C 9.203125 -16.71875 8.828125 -16.210938 8.515625 -15.671875 C 8.203125 -15.140625 7.976562 -14.664062 7.84375 -14.25 C 7.707031 -13.84375 7.640625 -13.523438 7.640625 -13.296875 L 7.640625 0 L 2.921875 0 L 2.921875 -31.453125 L 7.640625 -31.453125 L 7.640625 -21.53125 C 9.546875 -22.882812 11.523438 -23.5625 13.578125 -23.5625 L 14.09375 -23.5625 C 17.320312 -23.5625 19.894531 -22.742188 21.8125 -21.109375 C 23.726562 -19.472656 24.6875 -17.507812 24.6875 -15.21875 L 24.6875 0 L 19.96875 0 L 19.96875 -15.21875 C 19.96875 -16.226562 19.4375 -17.082031 18.375 -17.78125 C 17.3125 -18.488281 15.882812 -18.84375 14.09375 -18.84375 Z M 13.578125 -18.84375 "/></g></g></g><g fill="#ffffff" fill-opacity="1"><g transform="translate(200.495042, 213.475371)"><g><path d="M 6.859375 -23.015625 L 16.203125 -23.015625 L 16.203125 -4.71875 L 22.328125 -4.71875 L 22.328125 0 L 5.28125 0 L 5.28125 -4.71875 L 11.484375 -4.71875 L 11.484375 -18.296875 L 6.859375 -18.296875 Z M 11.46875 -26.625 C 10.800781 -27.3125 10.46875 -28.148438 10.46875 -29.140625 C 10.46875 -30.128906 10.800781 -30.960938 11.46875 -31.640625 C 12.144531 -32.328125 12.976562 -32.671875 13.96875 -32.671875 C 14.957031 -32.671875 15.796875 -32.328125 16.484375 -31.640625 C 17.171875 -30.960938 17.515625 -30.128906 17.515625 -29.140625 C 17.515625 -28.148438 17.171875 -27.3125 16.484375 -26.625 C 15.796875 -25.945312 14.957031 -25.609375 13.96875 -25.609375 C 12.976562 -25.609375 12.144531 -25.945312 11.46875 -26.625 Z M 11.46875 -26.625 "/></g></g></g><g fill="#ffffff" fill-opacity="1"><g transform="translate(236.395007, 213.475371)"><g><path d="M 14.375 -18.828125 L 13.1875 -18.828125 C 9.488281 -18.828125 7.640625 -16.726562 7.640625 -12.53125 L 7.640625 -10.875 C 7.640625 -6.394531 9.503906 -4.15625 13.234375 -4.15625 L 14.296875 -4.15625 C 16.117188 -4.15625 17.519531 -4.679688 18.5 -5.734375 C 19.476562 -6.796875 19.96875 -8.503906 19.96875 -10.859375 L 19.96875 -12.5625 C 19.96875 -16.738281 18.101562 -18.828125 14.375 -18.828125 Z M 24.6875 -12.5625 L 24.6875 -10.859375 C 24.6875 -9.222656 24.472656 -7.71875 24.046875 -6.34375 C 23.617188 -4.976562 22.988281 -3.773438 22.15625 -2.734375 C 21.332031 -1.691406 20.25 -0.878906 18.90625 -0.296875 C 17.5625 0.273438 16.023438 0.5625 14.296875 0.5625 L 13.234375 0.5625 C 11.523438 0.5625 10.003906 0.265625 8.671875 -0.328125 C 7.335938 -0.921875 6.253906 -1.738281 5.421875 -2.78125 C 4.585938 -3.832031 3.960938 -5.039062 3.546875 -6.40625 C 3.128906 -7.78125 2.921875 -9.269531 2.921875 -10.875 L 2.921875 -12.53125 C 2.921875 -15.84375 3.800781 -18.503906 5.5625 -20.515625 C 7.332031 -22.535156 9.875 -23.546875 13.1875 -23.546875 L 14.375 -23.546875 C 17.6875 -23.546875 20.234375 -22.535156 22.015625 -20.515625 C 23.796875 -18.503906 24.6875 -15.851562 24.6875 -12.5625 Z M 24.6875 -12.5625 "/></g></g></g><g fill="#ffffff" fill-opacity="1"><g transform="translate(272.294972, 213.475371)"><g><path d="M 14.09375 -4.15625 C 15.820312 -4.15625 17.234375 -4.34375 18.328125 -4.71875 C 19.421875 -5.09375 19.96875 -5.566406 19.96875 -6.140625 L 19.96875 -7.09375 C 19.96875 -7.289062 19.84375 -7.539062 19.59375 -7.84375 C 19.351562 -8.15625 19.046875 -8.363281 18.671875 -8.46875 L 8.703125 -11.078125 C 7.847656 -11.296875 7.085938 -11.640625 6.421875 -12.109375 C 5.765625 -12.585938 5.253906 -13.113281 4.890625 -13.6875 C 4.535156 -14.269531 4.269531 -14.84375 4.09375 -15.40625 C 3.925781 -15.976562 3.84375 -16.523438 3.84375 -17.046875 L 3.84375 -17.296875 C 3.84375 -17.847656 3.914062 -18.382812 4.0625 -18.90625 C 4.21875 -19.4375 4.507812 -19.992188 4.9375 -20.578125 C 5.375 -21.160156 5.9375 -21.664062 6.625 -22.09375 C 7.3125 -22.519531 8.25 -22.867188 9.4375 -23.140625 C 10.632812 -23.421875 12.015625 -23.5625 13.578125 -23.5625 L 14.09375 -23.5625 C 16.007812 -23.5625 17.875 -23.164062 19.6875 -22.375 C 21.5 -21.582031 22.859375 -20.460938 23.765625 -19.015625 L 19.765625 -16.484375 C 19.390625 -17.078125 18.679688 -17.617188 17.640625 -18.109375 C 16.609375 -18.597656 15.425781 -18.84375 14.09375 -18.84375 L 13.578125 -18.84375 C 12.835938 -18.84375 12.160156 -18.796875 11.546875 -18.703125 C 10.929688 -18.617188 10.445312 -18.515625 10.09375 -18.390625 C 9.75 -18.265625 9.453125 -18.125 9.203125 -17.96875 C 8.953125 -17.820312 8.78125 -17.691406 8.6875 -17.578125 C 8.601562 -17.460938 8.5625 -17.367188 8.5625 -17.296875 L 8.5625 -17.046875 C 8.5625 -16.867188 8.660156 -16.625 8.859375 -16.3125 C 9.066406 -16 9.382812 -15.78125 9.8125 -15.65625 L 19.84375 -13.046875 C 21.207031 -12.703125 22.351562 -11.957031 23.28125 -10.8125 C 24.21875 -9.664062 24.6875 -8.425781 24.6875 -7.09375 L 24.6875 -6.140625 C 24.6875 -4.960938 24.398438 -3.929688 23.828125 -3.046875 C 23.265625 -2.171875 22.476562 -1.472656 21.46875 -0.953125 C 20.46875 -0.441406 19.347656 -0.0625 18.109375 0.1875 C 16.878906 0.4375 15.539062 0.5625 14.09375 0.5625 L 12.65625 0.5625 C 11.8125 0.5625 10.941406 0.457031 10.046875 0.25 C 9.160156 0.0390625 8.289062 -0.285156 7.4375 -0.734375 C 6.59375 -1.191406 5.832031 -1.726562 5.15625 -2.34375 C 4.488281 -2.957031 3.945312 -3.707031 3.53125 -4.59375 C 3.125 -5.488281 2.921875 -6.4375 2.921875 -7.4375 L 7.640625 -7.4375 C 7.640625 -7.226562 7.703125 -6.96875 7.828125 -6.65625 C 7.953125 -6.351562 8.171875 -6 8.484375 -5.59375 C 8.804688 -5.1875 9.328125 -4.84375 10.046875 -4.5625 C 10.773438 -4.289062 11.644531 -4.15625 12.65625 -4.15625 Z M 14.09375 -4.15625 "/></g></g></g></svg>