<svg xmlns="http://www.w3.org/2000/svg" width="540" height="540" id="company-report"><path fill="#5C77FF" d="M372.842 227.812h11.338v303.75h-11.338zM153.874 227.812h11.338v303.75h-11.338zM240.005 96.5h59.989v8h-59.989zM201.446 155.66H339.7v16.844H201.446z" opacity=".3"></path><path fill="#354B87" d="M227.813 194.336h-37.969a5 5 0 0 0-5 5v151.876a5 5 0 0 0 5 5h37.969a5 5 0 0 0 5-5V199.336a5 5 0 0 0-5-5zm-5 75.937h-27.969v-27.969h27.969v27.969zm-27.969 10h27.969v27.969h-27.969v-27.969zm0-75.937h27.969v27.969h-27.969v-27.969zm27.969 141.875h-27.969v-27.969h27.969v27.969zm128.398-151.875h-37.969a5 5 0 0 0-5 5V343.924c0 2.762 2.238 5 5 5s5-2.238 5-5v-25.681h27.969v21.884c0 2.762 2.238 5 5 5s5-2.238 5-5V199.336a5 5 0 0 0-5-5zm-32.969 47.968h27.969v27.969h-27.969v-27.969zm0-37.968h27.969v27.969h-27.969v-27.969zm0 103.906v-27.969h27.969v27.969h-27.969z"></path><path fill="#354B87" d="M503.086 526.562h-32.969v-298.75a5 5 0 0 0-5-5h-87.275v-51.193a5 5 0 0 0-5-5h-29.287v-58.104a5 5 0 0 0-5-5h-33.561v-37.07a5 5 0 0 0-5-5H275V9.492a5 5 0 1 0-10 0v51.953h-24.995a5 5 0 0 0-5 5v37.07h-33.56a5 5 0 0 0-5 5v58.104h-29.288a5 5 0 0 0-5 5v51.193h-86.22a5 5 0 0 0-5 5v298.75H56.953a5 5 0 1 0 0 10h446.133c2.762 0 5-2.238 5-5s-2.238-5-5-5zM245.005 71.445h49.989v32.07h-49.989v-32.07zm-38.559 42.07h33.55l.01.001h59.989l.01-.001h33.551v53.104h-127.11v-53.104zM80.938 232.812h81.22v293.75h-81.22v-293.75zm91.219 293.75V176.619H367.841v349.943H172.157zm205.685 0v-293.75h82.275v293.75h-82.275zm-339.873 0h-9.492a5 5 0 1 0 0 10h9.492a5 5 0 1 0 0-10z"></path><path fill="#5C77FF" d="M531.563 401.161c0 10.104-6.339 19.639-17.551 28.055L364.51 396.657l102.453-44.961c39.202 11.222 64.6 29.204 64.6 49.465zm-192.038 60.275v56.099c-72.52-5.79-127.09-30.586-127.09-60.274v-56.1c0 10.104 6.328 19.639 17.551 28.055 16.432 12.414 43.432 22.275 76.38 28.045 10.504 1.855 21.599 3.258 33.159 4.175z"></path><path fill="#5C77FF" d="M531.563 401.161c0 10.104-6.339 19.639-17.551 28.055L364.51 396.657l102.453-44.961c39.202 11.222 64.6 29.204 64.6 49.465z"></path><path fill="#5C77FF" d="M531.563 401.163v56.1c0 6.043-8.775 16.527-17.551 23.303v-51.353c11.217-8.417 17.551-17.952 17.551-28.05z"></path><path fill="#3066FC" d="M531.563 401.161c0 10.104-6.339 19.639-17.551 28.055L364.51 396.657l102.453-44.961c39.202 11.222 64.6 29.204 64.6 49.465z"></path><path fill="#769AFF" d="M514.012 429.213v51.353L364.51 445.663v-49.007z"></path><path fill="#3964FF" d="M364.51 396.657v49.001l-5.748 16.844-19.237 55.033v-56.119z"></path><path fill="#5C77FF" d="M256.289 327.734a5 5 0 0 1-5-5V199.336a5 5 0 0 1 10 0v123.398a5 5 0 0 1-5 5zm28.477 0a5 5 0 0 1-5-5V199.336a5 5 0 1 1 10 0v123.398a5 5 0 0 1-5 5zm-132.891-66.445H94.922a5 5 0 0 1 0-10h56.953a5 5 0 0 1 0 10zm0 28.476H94.922a5 5 0 1 1 0-10h56.953a5 5 0 1 1 0 10zm0 28.477H94.922a5 5 0 1 1 0-10h56.953a5 5 0 1 1 0 10zm0 28.477H94.922a5 5 0 1 1 0-10h56.953a5 5 0 1 1 0 10zm0 28.476H94.922a5 5 0 1 1 0-10h56.953a5 5 0 1 1 0 10zm0 28.477H94.922a5 5 0 1 1 0-10h56.953a5 5 0 1 1 0 10zm0 28.476H94.922a5 5 0 1 1 0-10h56.953a5 5 0 1 1 0 10zm0 28.477H94.922a5 5 0 1 1 0-10h56.953a5 5 0 1 1 0 10zm0 28.476H94.922a5 5 0 1 1 0-10h56.953a5 5 0 1 1 0 10zM446.133 261.289H389.18a5 5 0 1 1 0-10h56.953a5 5 0 1 1 0 10zM446.133 289.765H389.18c-2.762 0-5-2.238-5-5s2.238-5 5-5h56.953c2.762 0 5 2.238 5 5s-2.238 5-5 5zM446.133 318.242H389.18c-2.762 0-5-2.238-5-5s2.238-5 5-5h56.953c2.762 0 5 2.238 5 5s-2.238 5-5 5z"></path><circle cx="77.939" cy="77.938" r="37.969" fill="#5C77FF"></circle><path fill="#5C77FF" d="M77.911 149.657c-2.892 0-5.808-.176-8.669-.521a5.274 5.274 0 0 1-4.602-5.868 5.275 5.275 0 0 1 5.868-4.602 61.997 61.997 0 0 0 9.843.398c2.9-.146 5.361 2.155 5.473 5.065s-2.156 5.361-5.065 5.473c-.937.036-1.877.055-2.821.055h-.027zm23.534-4.275a5.276 5.276 0 0 1-1.868-10.207 61.103 61.103 0 0 0 8.893-4.216 5.273 5.273 0 1 1 5.273 9.134 71.476 71.476 0 0 1-10.434 4.945 5.218 5.218 0 0 1-1.864.344zm-52.037-2.141a5.261 5.261 0 0 1-2.264-.513 71.832 71.832 0 0 1-9.98-5.781 5.273 5.273 0 0 1 6.003-8.672 61.305 61.305 0 0 0 8.511 4.93 5.273 5.273 0 0 1-2.27 10.036zm78.211-15.908a5.275 5.275 0 0 1-3.94-8.776 61.638 61.638 0 0 0 5.929-7.857 5.271 5.271 0 0 1 7.279-1.622 5.272 5.272 0 0 1 1.622 7.279 72.405 72.405 0 0 1-6.945 9.206 5.265 5.265 0 0 1-3.945 1.77zm-102.81-4.217a5.264 5.264 0 0 1-4.219-2.104 71.864 71.864 0 0 1-6.175-9.75 5.274 5.274 0 0 1 9.337-4.906 61.228 61.228 0 0 0 5.267 8.316 5.273 5.273 0 0 1-4.21 8.444zm117.639-23.902a5.274 5.274 0 0 1-5.124-6.54 61.127 61.127 0 0 0 1.582-9.71 5.26 5.26 0 0 1 5.683-4.829 5.273 5.273 0 0 1 4.83 5.683 71.913 71.913 0 0 1-1.855 11.388 5.276 5.276 0 0 1-5.116 4.008zM12.336 93.866a5.275 5.275 0 0 1-5.2-4.436 72.461 72.461 0 0 1-.916-11.492v-.224a5.273 5.273 0 0 1 10.546 0v.261c0 3.255.264 6.557.782 9.778a5.273 5.273 0 0 1-5.212 6.113zm130.155-26.443a5.275 5.275 0 0 1-5.119-4.026 60.808 60.808 0 0 0-3.098-9.339 5.273 5.273 0 0 1 2.794-6.915 5.272 5.272 0 0 1 6.914 2.794 71.576 71.576 0 0 1 3.637 10.963 5.273 5.273 0 0 1-5.128 6.523zM14.963 61.968a5.274 5.274 0 0 1-4.998-6.96 71.55 71.55 0 0 1 4.562-10.603 5.271 5.271 0 0 1 7.129-2.19 5.272 5.272 0 0 1 2.19 7.128 60.908 60.908 0 0 0-3.888 9.035 5.27 5.27 0 0 1-4.995 3.59zm112.798-22.723a5.262 5.262 0 0 1-3.955-1.782 61.767 61.767 0 0 0-7.088-6.835 5.274 5.274 0 0 1 6.693-8.152 72.327 72.327 0 0 1 8.3 8.006 5.271 5.271 0 0 1-3.95 8.763zM32.048 35.16a5.273 5.273 0 0 1-3.644-9.086 72.136 72.136 0 0 1 8.953-7.275 5.275 5.275 0 0 1 7.333 1.358 5.276 5.276 0 0 1-1.358 7.334 61.404 61.404 0 0 0-7.642 6.21 5.256 5.256 0 0 1-3.642 1.459zm69.597-14.038a5.239 5.239 0 0 1-1.882-.35 60.733 60.733 0 0 0-9.44-2.754 5.273 5.273 0 0 1-4.104-6.227 5.27 5.27 0 0 1 6.227-4.104 71.359 71.359 0 0 1 11.081 3.231 5.274 5.274 0 0 1 3.044 6.809 5.271 5.271 0 0 1-4.926 3.395zm-42.03-1.796a5.274 5.274 0 0 1-1.449-10.344 71.59 71.59 0 0 1 11.315-2.269 5.273 5.273 0 1 1 1.232 10.474 60.889 60.889 0 0 0-9.644 1.934 5.268 5.268 0 0 1-1.454.205z" opacity=".4"></path><path fill="#9DB2FC" d="M466.963 351.696 364.51 396.657l-24.985 64.759v.021c-11.56-.917-22.654-2.32-33.159-4.177-32.948-5.769-59.948-15.63-76.38-28.044-11.223-8.416-17.551-17.951-17.551-28.055 0-19.892 24.49-37.589 62.48-48.832h.01c11.612-3.438 24.501-6.286 38.317-8.406 12.013-1.835 24.732-3.132 37.969-3.797a420.323 420.323 0 0 1 20.787-.517c35.575 0 68.429 4.493 94.965 12.087z"></path></svg>
